<?xml version="1.0" encoding="UTF-8" standalone="no"?>
<!DOCTYPE svg PUBLIC "-//W3C//DTD SVG 1.1//EN" "http://www.w3.org/Graphics/SVG/1.1/DTD/svg11.dtd">
<svg width="117.60" height="117.60" viewBox="0.00 0.00 490.00 490.00" xmlns="http://www.w3.org/2000/svg" xmlns:xlink="http://www.w3.org/1999/xlink">
<g stroke-linecap="round" id="Layer_3_Copy">
<path d="M110.50,265.10 C110.13,264.80 109.92,264.74 109.88,264.90 C109.84,265.10 112.75,288.01 113.78,296.44 C114.24,300.83 115.15,317.98 114.72,324.68 C114.51,327.85 112.46,346.28 111.60,353.59 C110.60,361.25 108.15,371.38 107.00,375.97 C107.00,375.97 106.59,378.83 106.59,378.83 C113.37,380.12 127.35,381.58 133.50,381.64 C137.77,381.67 155.39,380.77 162.16,379.95 C175.29,378.32 192.14,372.82 195.06,371.86 C193.29,372.14 187.33,373.68 184.13,374.38 C179.28,375.42 159.61,376.77 151.53,377.27 C147.89,377.50 143.19,377.98 142.60,377.46 C141.53,376.48 140.99,367.44 140.90,365.83 C137.38,313.60 135.57,299.42 134.03,293.09 C133.26,289.99 130.11,281.42 130.08,281.29 C129.97,280.75 129.96,279.69 130.05,278.11 C131.74,284.59 135.64,299.44 137.85,307.82 C140.94,318.78 144.67,329.26 146.67,333.77 C149.27,339.59 156.12,351.93 159.71,355.45 C165.06,360.60 171.33,363.64 174.00,364.42" fill="none" stroke="rgb(28, 15, 13)" stroke-width="30.00" stroke-opacity="1.00" stroke-linejoin="round"/>
<path d="M269.13,380.13 C267.27,379.86 266.36,379.76 266.40,379.83 C267.11,380.98 281.35,382.85 291.22,383.61 C298.93,384.10 314.85,385.11 323.06,385.62 C336.19,386.45 361.66,385.71 374.42,385.62 C378.75,385.48 386.55,385.12 386.50,385.10 C386.50,385.10 401.04,383.50 401.04,383.50 C395.24,359.18 392.18,342.72 389.36,327.51 C384.91,301.33 384.54,296.09 384.38,296.21 C379.08,300.24 367.06,311.22 364.78,313.58 C359.62,318.95 354.27,325.60 349.97,332.29 C344.38,341.04 332.70,367.19 332.12,368.77 C332.49,369.38 339.55,370.25 343.66,370.76 C357.41,372.36 369.17,373.24 372.38,372.71 C374.86,372.25 377.96,371.05 379.17,369.80 C381.26,367.59 383.00,361.45 383.24,358.82 C383.80,352.40 381.50,337.42 380.64,334.09 C375.77,315.66 371.08,307.96 369.77,306.15 C368.04,306.75 364.68,318.04 363.19,327.08 C362.38,332.56 362.02,347.59 362.31,351.56 C362.94,359.93 365.38,365.18 365.88,366.01 C365.88,366.01 367.18,366.09 367.18,366.09 C368.48,364.56 370.02,359.07 370.39,355.70 C370.71,352.63 370.56,346.45 370.11,344.01 C369.53,341.16 367.00,336.84 365.03,335.14 C362.95,333.39 359.50,331.23 357.06,330.17 C355.84,329.68 353.00,329.08 351.77,329.18 C350.33,329.34 348.23,331.31 346.96,333.33 C346.05,334.86 344.06,340.45 343.51,343.24 C342.92,346.33 342.85,352.24 343.46,354.85 C344.09,357.38 346.82,362.11 348.19,363.34 C349.93,364.82 352.96,366.19 354.48,365.86 C355.95,365.51 358.38,363.76 359.26,362.57 C361.05,359.97 363.32,353.96 364.06,350.63 C365.41,344.26 366.12,331.50 365.28,326.90 C364.61,323.39 362.43,318.18 360.90,316.13 C359.55,314.37 355.84,311.21 353.85,310.00 C351.52,308.63 345.63,306.64 342.88,307.47 C340.15,308.35 336.76,313.62 335.69,316.77 C333.77,322.66 332.32,336.91 332.70,342.39 C332.95,345.75 334.16,351.94 335.34,354.66 C336.68,357.62 340.57,361.66 342.87,362.54 C345.15,363.35 349.63,362.55 351.74,361.04 C353.75,359.53 356.95,354.89 358.01,351.85 C359.05,348.75 360.13,340.78 360.00,337.32 C359.86,334.43 358.51,328.48 356.93,325.52 C356.26,324.28 352.33,317.70 351.61,316.51" fill="none" stroke="rgb(28, 15, 13)" stroke-width="30.00" stroke-opacity="1.00" stroke-linejoin="round"/>
<path d="M152.92,279.12 C153.45,287.67 160.27,330.68 161.64,335.53 C162.67,339.09 165.63,345.70 168.13,350.42 C170.13,354.09 175.55,360.07 177.47,362.21 C180.33,365.35 185.32,369.47 187.68,371.02 C190.04,372.54 196.49,375.35 198.76,376.06 C201.94,377.03 224.23,380.27 228.52,380.67 C234.44,381.22 246.09,381.13 255.51,380.57 C259.56,380.28 276.74,378.19 281.88,377.27 C289.16,375.94 302.50,371.00 308.61,367.88 C312.62,365.82 316.67,363.21 319.29,360.88 C321.82,358.59 325.18,354.69 328.43,350.48 C331.02,347.02 334.04,341.87 335.59,337.99 C338.07,331.70 339.86,322.05 339.71,317.14 C339.62,314.88 338.70,307.44 338.21,306.44 C336.40,308.04 332.89,315.33 332.22,316.52 C329.32,321.70 320.08,332.99 313.83,338.52 C307.58,344.02 295.54,352.17 289.44,354.89 C283.17,357.65 272.06,360.42 266.11,360.89 C263.11,361.12 244.39,361.40 235.80,361.47 C227.34,361.44 213.44,361.34 207.92,360.26 C202.05,359.09 197.86,358.05 194.85,356.87 C191.86,355.65 187.58,352.69 185.93,350.52 C183.28,346.93 179.21,333.89 177.04,324.57 C174.17,310.85 169.34,291.83 168.93,290.56 C171.25,290.68 189.61,296.55 195.32,297.57 C238.05,304.84 293.87,314.50 296.56,315.13 C299.03,315.73 305.42,318.80 305.99,318.89 C306.40,318.95 307.27,318.91 308.59,318.77 C308.93,319.51 298.13,330.75 293.46,334.04 C290.14,336.34 285.38,338.47 282.56,339.11 C279.44,339.80 258.19,343.14 252.42,343.87 C244.15,344.86 228.57,344.84 224.60,344.26 C218.43,343.32 208.03,340.92 203.06,338.99 C199.77,337.69 194.28,334.80 191.92,332.87 C189.56,330.92 186.39,326.56 185.81,324.84 C185.22,322.97 184.90,320.22 185.14,318.57 C185.38,317.22 186.43,314.90 187.23,314.15 C188.89,312.66 195.32,312.16 198.98,312.55 C205.87,313.32 217.19,315.84 226.52,318.44 C253.80,326.66 260.09,328.30 265.81,329.41 C265.66,328.90 249.03,327.25 241.19,326.47 C226.96,324.78 202.32,319.98 200.82,319.05 C202.16,318.21 208.22,317.60 213.68,317.92 C217.83,318.20 236.30,321.75 244.20,323.31 C254.09,325.20 258.90,325.62 265.76,325.78 C245.81,326.26 194.29,332.74 193.31,332.74 C198.48,329.90 210.38,326.64 217.96,325.60 C225.17,324.68 240.66,323.57 248.33,323.23 C258.61,322.97 271.22,323.22 275.95,323.83 C278.70,324.19 290.05,326.44 293.06,326.60 C293.06,326.60 293.37,326.65 293.37,326.65" fill="none" stroke="rgb(240, 203, 188)" stroke-width="30.00" stroke-opacity="1.00" stroke-linejoin="round"/>
<path d="M154.66,284.96 C153.88,284.90 153.50,284.92 153.50,285.03 C153.55,285.77 201.15,313.58 203.14,314.51 C205.68,315.68 223.93,323.21 230.86,325.82 C257.58,335.27 286.05,340.03 296.29,341.17 C299.82,341.52 314.47,340.47 322.28,340.00 C330.33,339.40 340.00,336.30 340.31,336.21 C341.40,335.86 341.87,335.02 342.09,333.07 C342.77,326.07 342.01,315.28 340.98,312.75 C340.07,312.98 334.31,316.03 331.87,317.02 C325.13,319.75 312.85,322.02 306.50,322.30 C300.32,322.55 284.33,321.04 281.06,320.48 C277.27,319.82 259.20,315.86 251.84,314.01 C241.55,311.11 216.59,302.48 196.39,294.36 C184.83,289.78 176.84,287.13 170.14,286.76 C169.73,286.74 169.44,286.77 169.26,286.86 C168.51,288.59 201.48,301.51 220.59,308.22 C240.42,314.98 253.89,318.54 277.13,323.18 C284.65,324.67 293.27,326.39 294.38,326.61 C288.06,325.37 272.32,322.30 262.91,320.45 C256.06,319.10 243.19,316.49 236.88,314.18 C230.21,311.65 217.14,306.64 210.73,304.17 C201.67,300.67 192.38,296.42 186.62,295.05 C184.39,294.54 177.50,293.45 174.46,292.41 C171.31,291.32 165.20,287.85 163.10,287.17 C160.07,286.22 157.64,285.79 157.63,285.96 C157.81,286.99 161.70,291.68 164.70,294.18 C171.63,299.83 180.09,305.65 186.48,309.41 C193.89,313.67 203.88,318.33 211.52,321.39 C218.50,324.09 230.53,328.42 238.87,330.65 C246.91,332.68 265.35,337.22 267.71,337.64 C269.88,338.02 291.87,340.40 293.45,340.50 C299.80,340.81 309.81,341.30 318.28,340.92 C330.54,340.21 334.09,339.47 339.21,337.19 C337.52,336.19 336.39,335.58 335.83,335.35 C335.27,335.13 334.49,334.97 333.49,334.87" fill="none" stroke="rgb(207, 166, 151)" stroke-width="25.00" stroke-opacity="1.00" stroke-linejoin="round"/>
<path d="M163.89,300.16 C163.89,300.16 160.47,298.19 160.47,298.19 C164.10,300.62 193.88,308.92 208.53,312.38 C206.13,312.10 201.47,312.24 197.31,313.01 C196.78,313.11 196.15,313.22 195.41,313.33" fill="none" stroke="rgb(50, 12, 7)" stroke-width="20.00" stroke-opacity="1.00" stroke-linejoin="round"/>
<path d="M187.35,312.64 C187.35,312.64 186.17,311.13 186.17,311.13 C186.32,318.45 187.58,327.66 189.78,338.39 C192.66,351.60 192.90,352.47 193.15,353.01 C192.78,346.46 191.69,328.82 191.15,325.65 C191.05,325.10 188.11,311.96 187.85,310.71 C187.85,310.71 188.65,316.43 188.65,316.43" fill="none" stroke="rgb(50, 12, 7)" stroke-width="20.00" stroke-opacity="1.00" stroke-linejoin="round"/>
<path d="M250.93,317.97 C250.93,317.97 248.40,318.45 248.40,318.45 C248.40,318.45 303.12,310.93 303.12,310.93 C301.71,311.26 297.81,312.17 297.06,312.45 C296.58,312.63 295.80,313.01 294.72,313.60" fill="none" stroke="rgb(50, 12, 7)" stroke-width="20.00" stroke-opacity="1.00" stroke-linejoin="round"/>
<path d="M268.00,321.31 C268.12,321.60 268.17,322.23 268.23,324.55 C269.07,351.08 269.76,356.29 270.60,358.86 C271.63,355.71 274.54,333.91 274.30,330.08 C274.24,329.24 273.39,325.57 273.17,323.55" fill="none" stroke="rgb(50, 12, 7)" stroke-width="20.00" stroke-opacity="1.00" stroke-linejoin="round"/>
<path d="M302.25,369.06 C302.25,369.06 300.65,368.00 300.65,368.00 C300.65,368.00 310.75,380.39 310.75,380.39 C310.75,380.39 322.65,373.18 322.65,373.18 C322.65,373.18 310.48,360.79 310.48,360.79 C310.48,360.79 301.68,365.41 301.68,365.41 C301.68,365.41 311.79,373.97 311.79,373.97" fill="none" stroke="rgb(53, 70, 32)" stroke-width="15.00" stroke-opacity="1.00" stroke-linejoin="round"/>
<path d="M161.73,360.87 C163.30,358.35 168.18,350.51 168.25,350.38 C168.92,349.08 169.21,349.12 170.18,350.51 C170.75,351.39 172.21,353.36 172.70,353.89 C173.90,355.25 174.06,356.78 173.13,358.80 C171.89,361.39 169.32,364.30 167.75,365.72 C167.75,365.72 166.32,360.05 166.32,360.05" fill="none" stroke="rgb(53, 70, 32)" stroke-width="15.00" stroke-opacity="1.00" stroke-linejoin="round"/>
<path d="M134.08,285.23 C134.08,285.23 134.40,282.76 134.40,282.76 C135.03,290.26 136.85,310.59 137.47,315.10 C138.96,325.72 146.52,348.78 149.05,352.92 C150.69,355.57 155.75,362.17 158.28,365.32 C160.97,368.66 164.87,372.39 167.84,374.35 C173.39,377.97 186.43,384.99 193.13,387.29 C198.84,389.23 210.53,391.87 221.58,393.77 C229.54,395.15 263.02,397.46 278.80,397.20 C285.73,397.05 303.60,393.68 308.15,392.03 C311.91,390.64 317.56,387.51 320.46,385.24 C323.06,383.16 326.20,380.10 329.57,376.69" fill="none" stroke="rgb(102, 53, 46)" stroke-width="20.00" stroke-opacity="1.00" stroke-linejoin="round"/>
<path d="M267.24,345.97 C267.51,345.41 267.63,345.15 267.59,345.17 C267.11,345.69 266.74,348.44 267.20,350.32 C267.64,352.06 269.31,353.95 270.35,354.00 C271.29,353.99 272.90,352.77 273.15,351.85 C273.60,350.01 272.36,347.38 271.77,346.52 C270.25,346.72 268.68,348.48 268.22,350.81 C268.13,351.27 268.19,351.76 268.42,352.26 C268.42,352.26 271.09,348.69 271.09,348.69" fill="none" stroke="rgb(109, 28, 18)" stroke-width="15.00" stroke-opacity="1.00" stroke-linejoin="round"/>
<path d="M192.03,335.96 C191.12,337.77 190.94,346.10 191.60,347.24 C191.72,347.44 191.98,347.64 192.38,347.85 C194.72,345.94 192.69,337.07 192.30,336.60 C192.30,336.60 191.39,342.36 191.39,342.36 C191.39,342.36 192.04,337.86 192.04,337.86" fill="none" stroke="rgb(109, 28, 18)" stroke-width="15.00" stroke-opacity="1.00" stroke-linejoin="round"/>
<path d="M19.86,210.14 C21.63,213.08 24.85,217.03 27.29,219.22 C31.42,222.89 43.72,231.09 51.89,235.16 C56.96,237.67 96.26,255.42 105.56,258.47 C120.18,263.30 150.74,273.37 164.81,277.74 C171.00,279.56 207.29,287.11 223.04,290.34 C231.94,292.07 264.15,296.32 278.73,298.16 C293.26,299.69 322.78,301.74 337.49,302.25 C344.98,302.38 359.02,302.46 365.58,302.41 C374.47,302.19 383.95,300.88 396.68,298.53 C407.28,296.47 415.68,293.56 420.63,291.24 C424.66,289.33 431.38,285.68 433.76,283.74 C439.52,278.84 452.32,269.40 453.60,267.80 C455.61,265.21 457.79,259.54 458.01,256.53 C458.16,253.99 457.19,248.42 456.45,247.21 C454.80,244.61 450.03,240.65 448.58,239.63 C446.30,238.05 441.06,236.08 437.79,235.77 C434.21,235.47 426.30,236.29 423.27,236.91 C416.64,238.31 405.21,242.83 397.37,247.01 C394.21,248.69 391.56,249.86 390.73,250.17" fill="none" stroke="rgb(47, 27, 22)" stroke-width="30.00" stroke-opacity="1.00" stroke-linejoin="round"/>
<path d="M35.02,221.75 C33.85,222.12 32.45,221.96 31.23,221.13 C30.12,220.37 25.09,214.80 25.19,214.09 C25.46,212.63 31.65,208.46 35.22,207.58 C36.65,207.25 43.53,206.68 46.29,206.97 C50.87,207.49 64.60,212.14 69.01,214.11 C74.81,216.71 82.65,221.66 91.49,228.28 C100.89,235.48 107.65,241.24 109.87,244.55 C110.63,245.70 111.55,247.33 111.60,247.53 C109.39,247.63 71.50,234.55 62.37,230.51 C58.90,228.91 50.85,225.08 50.28,224.76 C46.17,222.42 45.49,221.30 45.59,220.66 C46.71,219.29 52.93,216.19 56.55,215.01 C59.97,213.91 64.45,213.63 65.84,213.87 C70.19,214.71 84.42,222.78 91.07,227.81 C96.74,232.13 106.74,241.82 111.71,246.78 C114.90,249.78 124.71,256.82 127.25,258.62 C128.23,259.29 129.21,259.96 130.18,260.63" fill="none" stroke="rgb(47, 27, 22)" stroke-width="30.00" stroke-opacity="1.00" stroke-linejoin="round"/>
<path d="M41.59,206.98 C40.57,206.90 39.85,206.77 39.44,206.57 C38.18,205.96 37.62,205.38 37.76,204.83 C37.97,204.16 46.33,203.72 48.55,203.72 C52.40,203.75 58.21,204.53 61.89,205.60 C66.88,207.08 80.96,214.29 88.21,218.00 C96.11,222.08 113.99,231.37 116.19,232.87 C122.32,237.03 134.85,245.44 141.23,249.70 C145.77,252.58 159.62,259.63 165.32,262.09 C176.09,266.69 185.52,270.03 193.79,272.27 C207.37,275.78 238.46,282.83 248.74,284.63 C256.09,285.72 271.25,287.83 279.06,288.85 C286.84,289.81 299.39,291.34 304.16,291.90" fill="none" stroke="rgb(47, 27, 22)" stroke-width="30.00" stroke-opacity="1.00" stroke-linejoin="round"/>
<path d="M122.60,217.27 C122.60,217.27 121.95,219.95 121.95,219.95 C124.90,208.65 130.32,178.10 132.58,162.68 C133.91,154.42 137.05,140.16 138.83,135.91 C141.99,128.47 146.06,121.55 147.25,118.38 C147.23,118.39 163.84,108.83 168.75,106.68 C174.63,104.12 188.95,99.44 196.03,97.96 C202.82,96.55 215.87,94.96 222.56,94.56 C226.68,94.32 241.53,94.12 249.97,94.39 C257.60,94.80 271.88,96.83 276.54,97.86 C280.27,98.69 296.69,103.34 303.65,105.39 C307.67,106.66 312.08,108.76 314.54,110.74 C316.75,112.51 322.23,115.48 325.91,116.56 C326.42,116.71 331.80,118.24 332.43,118.81 C332.54,118.91 347.07,159.11 352.43,173.26 C364.74,207.27 369.91,230.53 369.97,230.71 C370.30,231.73 370.01,232.37 368.57,233.93 C364.00,238.81 356.58,244.05 350.81,246.93 C346.25,249.17 331.78,252.68 323.78,254.05 C316.36,255.31 303.64,256.80 293.05,257.40 C283.03,257.79 273.20,257.74 267.07,257.14 C251.28,255.26 218.99,251.15 202.50,248.92 C193.42,247.52 179.37,245.03 176.30,244.21 C173.24,243.39 158.05,240.25 152.14,237.52 C149.06,236.08 142.82,232.46 140.49,230.61 C138.85,229.30 132.24,222.78 132.02,222.40 C131.40,221.31 144.04,184.33 149.84,168.65 C168.81,121.10 174.48,106.29 174.47,106.34 C170.05,120.74 161.60,149.24 157.80,163.44 C155.85,171.42 152.38,186.32 150.87,193.24 C149.24,201.51 148.24,212.20 148.50,220.36 C148.58,222.97 149.12,227.24 149.59,227.72 C152.92,222.06 165.35,184.78 170.40,169.23 C175.32,153.88 182.87,130.36 185.11,125.88 C186.70,122.79 198.68,105.71 198.75,105.76 C197.89,108.90 192.44,126.93 189.87,135.50 C185.18,152.40 181.52,171.30 178.82,192.22 C177.60,201.52 176.27,208.03 173.53,219.41 C172.60,223.34 172.02,227.22 172.02,232.08 C184.96,203.46 222.52,119.69 222.67,119.33 C224.13,115.82 225.28,114.55 226.94,112.96 C223.53,125.95 216.10,155.75 212.09,172.55 C208.62,188.15 201.45,221.49 201.94,227.36 C201.94,227.36 202.60,226.32 202.60,226.32 C202.60,226.32 199.13,238.81 199.13,238.81 C198.46,238.81 208.48,199.67 212.74,184.84 C217.42,169.05 229.34,129.51 230.65,126.47 C232.89,121.35 237.01,116.19 244.26,108.47 C251.72,100.55 255.20,96.46 255.40,96.52 C253.53,105.64 244.42,137.15 239.22,153.35 C236.92,160.45 233.50,171.21 231.75,180.31 C230.39,187.93 226.85,207.94 226.46,211.23 C226.12,214.21 225.60,223.27 225.54,224.07 C225.19,228.61 226.33,237.05 226.57,239.66 C227.54,236.53 231.31,221.23 233.70,212.36 C238.38,196.53 250.97,157.27 253.56,150.19 C261.17,128.81 263.31,124.02 268.11,115.35 C269.34,113.10 275.28,107.77 277.24,105.93 C277.24,105.93 275.14,107.71 275.14,107.71 C275.58,107.90 276.90,108.51 277.51,108.91 C278.67,109.70 279.81,111.87 280.37,114.30 C281.12,117.84 279.67,133.98 278.49,140.29 C274.83,158.22 272.06,169.69 264.22,197.60 C261.40,208.32 259.91,214.65 259.08,221.93 C257.91,231.96 256.24,241.49 256.48,244.08 C257.79,240.72 264.91,225.68 267.37,220.12 C271.67,209.87 284.76,176.14 290.52,162.30 C293.88,153.87 297.20,143.00 300.06,137.27 C303.66,130.59 309.53,118.68 309.78,118.28 C308.33,123.54 300.55,154.36 297.23,171.67 C292.51,198.20 287.81,236.89 287.96,238.92 C288.08,240.32 287.67,241.87 286.54,244.81 C288.93,241.43 294.65,227.40 296.41,222.40 C300.27,210.99 311.48,173.74 313.39,165.16 C316.03,152.62 319.02,140.98 321.77,136.33 C321.99,135.97 322.21,135.74 322.42,135.64 C323.10,136.01 321.83,149.16 320.05,160.19 C318.57,168.28 315.36,183.61 313.80,190.08 C312.57,194.80 306.69,214.06 305.82,217.38 C304.11,224.00 303.11,237.11 302.68,239.60 C309.39,228.41 317.54,209.85 326.75,186.06 C329.87,178.24 332.39,174.42 333.11,173.42 C334.31,174.83 335.61,179.51 336.18,182.95 C337.31,190.04 338.01,209.87 338.64,211.78 C339.03,212.89 340.62,217.09 340.74,220.70 C340.78,222.55 340.84,226.62 340.75,227.11 C340.49,228.34 339.12,229.65 337.00,230.94 C330.63,234.80 320.10,241.18 315.93,243.71 C316.97,242.99 320.29,240.70 321.09,240.09 C323.96,237.87 323.91,234.70 323.42,233.53" fill="none" stroke="rgb(184, 136, 117)" stroke-width="30.00" stroke-opacity="1.00" stroke-linejoin="round"/>
<path d="M101.61,220.21 C105.43,223.81 118.38,231.47 126.66,235.31 C132.84,238.17 150.33,246.38 152.89,247.43 C167.33,252.99 195.47,263.74 207.90,267.22 C219.51,270.32 231.33,273.07 238.44,274.11 C271.67,278.51 312.63,279.38 320.25,279.56 C327.86,279.55 343.56,279.15 347.43,278.77 C354.84,278.13 373.98,276.43 377.44,275.83 C399.14,271.32 406.62,269.19 414.33,266.51 C416.56,265.73 420.80,263.60 422.70,261.70 C423.56,260.83 430.85,251.18 432.69,247.11 C432.90,246.65 432.72,246.58 431.21,245.79 C428.88,244.67 421.22,240.24 419.60,239.48 C415.70,237.66 409.54,236.86 405.20,237.33 C401.45,237.78 398.04,238.58 394.80,240.92 C394.34,241.26 383.57,249.47 382.08,250.52 C376.44,254.51 366.54,259.50 357.67,262.70 C346.58,266.54 321.85,272.68 313.94,275.41 C309.48,276.91 306.77,277.57 301.70,277.60 C300.52,277.59 299.34,277.59 298.16,277.59" fill="none" stroke="rgb(145, 103, 86)" stroke-width="25.00" stroke-opacity="1.00" stroke-linejoin="round"/>
<path d="M337.09,273.89 C339.77,275.23 348.49,273.89 359.17,271.82 C367.26,270.17 383.55,266.76 389.59,264.74 C395.49,262.74 409.82,256.58 413.37,255.55 C414.82,255.20 416.27,254.28 416.73,253.13 C417.05,252.34 416.97,250.88 416.81,250.58 C413.88,250.14 405.73,253.46 403.05,254.58 C403.05,254.58 402.04,254.95 402.04,254.95" fill="none" stroke="rgb(145, 103, 86)" stroke-width="25.00" stroke-opacity="1.00" stroke-linejoin="round"/>
<path d="M88.39,214.21 C88.39,214.21 85.17,213.57 85.17,213.57 C87.77,217.54 101.58,229.46 105.46,232.51 C120.70,244.49 165.05,270.21 170.90,273.08 C174.37,274.75 180.51,276.53 181.84,276.31 C182.88,276.13 183.67,275.79 184.21,275.30 C184.46,275.06 184.66,274.59 184.80,273.89" fill="none" stroke="rgb(47, 27, 22)" stroke-width="17.00" stroke-opacity="1.00" stroke-linejoin="round"/>
<path d="M250.10,94.22" fill="none" stroke="rgb(32, 52, 25)" stroke-width="30.00" stroke-opacity="1.00" stroke-linejoin="round"/>
<path d="M251.63,95.64 C251.66,95.64 251.57,95.65 251.54,95.65 C248.18,96.01 243.22,97.37 239.27,99.01 C233.17,101.66 221.09,107.03 212.88,112.09 C209.35,114.31 202.74,118.49 201.87,119.22 C200.91,120.04 194.42,126.74 194.33,126.84 C192.34,129.30 188.29,150.20 187.84,152.82 C186.87,158.62 185.84,176.69 185.84,181.17 C185.84,186.25 187.10,204.93 187.72,212.31 C188.43,219.29 194.07,244.67 194.23,245.28 C193.49,241.75 191.72,226.42 190.81,218.07 C189.62,204.85 190.15,170.66 191.34,160.11 C191.64,157.50 192.79,151.79 193.64,148.78 C195.61,141.97 199.60,135.22 199.58,135.27 C201.13,131.60 202.90,125.46 203.09,125.01 C203.68,123.77 216.55,116.22 224.30,112.02 C231.81,108.02 239.87,104.37 248.98,100.57 C258.91,96.58 269.20,93.13 274.78,92.79 C278.58,92.58 283.26,92.68 286.72,92.92 C278.08,94.44 257.00,92.29 254.13,92.73 C249.76,93.46 240.84,98.55 231.01,105.47 C223.00,111.28 218.76,115.06 214.73,119.44" fill="none" stroke="rgb(32, 52, 25)" stroke-width="30.00" stroke-opacity="1.00" stroke-linejoin="round"/>
<path d="M194.67,147.34 C193.76,145.96 189.20,141.78 186.15,140.63 C184.50,140.02 179.65,139.79 177.00,140.34 C174.27,140.94 169.48,143.13 167.13,144.84 C164.87,146.53 160.72,151.16 158.68,154.43 C156.15,158.55 152.37,170.38 151.73,176.17 C151.41,179.18 151.74,185.63 152.34,187.98 C153.04,190.62 155.96,195.97 158.22,198.46 C160.63,201.05 165.62,204.73 169.22,206.80 C173.55,209.20 177.97,211.30 180.97,212.19 C184.88,213.31 190.41,214.23 193.49,214.20 C195.69,214.16 202.37,213.35 205.27,212.28 C208.04,211.23 215.98,207.12 219.00,204.76 C221.93,202.43 226.70,197.30 228.82,194.20 C230.72,191.39 233.38,185.06 233.74,182.92 C234.03,180.97 233.98,177.01 233.56,175.30 C232.75,172.21 229.12,166.94 226.52,164.24 C222.48,160.11 210.58,151.39 205.17,148.58 C201.85,146.88 195.53,144.49 192.29,144.02 C188.88,143.56 181.86,144.36 178.47,145.44 C175.50,146.42 169.95,149.39 168.01,151.04 C165.95,152.84 163.01,157.52 162.23,160.38 C161.45,163.36 161.22,170.51 161.76,174.76 C162.07,177.03 163.57,183.09 164.67,185.79 C165.98,188.92 168.79,193.45 170.86,195.70 C172.86,197.84 178.11,201.14 180.72,202.10 C183.24,202.99 189.67,203.91 192.70,203.69 C196.12,203.39 201.41,201.77 204.28,200.11 C206.93,198.53 211.58,193.80 213.20,191.32 C214.55,189.22 217.18,182.79 217.57,179.25 C217.76,177.28 217.43,174.20 216.86,172.56 C215.73,169.57 210.89,165.17 207.99,163.74 C202.70,161.21 189.59,157.73 184.74,157.58 C180.85,157.51 176.12,159.03 174.52,160.90 C173.82,161.77 172.58,164.55 172.34,165.84 C171.84,168.80 173.19,175.33 174.60,178.25 C175.99,181.02 181.07,186.71 183.16,188.48 C185.23,190.19 190.47,192.52 192.03,192.96 C194.16,193.54 199.04,193.61 200.76,193.16 C204.78,192.03 210.05,188.03 211.87,185.28 C212.67,183.99 212.76,181.14 212.11,179.22 C211.65,177.94 206.29,174.19 203.09,172.72 C195.56,169.31 185.36,167.81 184.27,168.32 C182.82,169.06 181.54,170.85 181.56,172.12 C181.70,174.74 184.38,180.09 187.20,182.70 C188.92,184.26 191.73,185.90 194.30,186.92 C196.53,187.75 199.32,188.16 201.03,187.86 C202.64,187.53 204.66,186.30 205.88,184.96 C207.25,183.39 208.33,181.45 208.65,179.91 C208.90,178.60 208.82,176.50 208.51,174.95 C208.20,173.64 206.48,171.32 205.14,170.56 C203.81,169.87 201.01,170.65 200.36,171.92 C199.30,174.15 199.81,178.85 199.96,181.84" fill="none" stroke="rgb(2, 2, 2)" stroke-width="25.00" stroke-opacity="1.00" stroke-linejoin="round"/>
<path d="M186.02,159.68 C185.79,159.17 181.22,157.73 178.96,158.10 C177.82,158.32 175.56,159.44 174.50,160.33 C172.45,162.12 170.41,167.05 170.17,169.65 C169.99,172.31 171.39,177.93 172.66,180.43 C174.27,183.49 179.26,187.93 182.51,188.97 C184.17,189.46 187.53,189.71 189.16,189.48 C192.17,188.98 197.14,185.65 198.68,183.35 C199.95,181.36 200.95,176.52 200.63,174.02 C200.27,171.49 198.07,167.18 196.18,165.39 C192.48,161.99 183.80,159.48 181.90,159.62 C179.63,159.84 176.61,161.05 175.30,162.48 C173.14,164.90 171.88,170.23 172.02,172.39 C172.25,175.17 174.30,180.31 176.63,183.04 C178.76,185.46 183.74,188.14 186.73,188.48 C189.57,188.75 195.03,187.28 197.27,185.78 C199.33,184.34 201.97,180.51 202.40,178.40 C202.78,176.31 201.82,172.12 200.51,170.45 C199.28,168.94 194.50,166.48 191.79,165.89 C188.81,165.29 182.43,164.95 179.09,165.42 C176.17,165.88 172.96,167.98 172.34,169.93 C171.77,171.95 173.03,177.41 174.80,180.12 C176.72,182.97 182.57,187.48 185.71,188.41 C187.30,188.85 190.39,188.98 191.83,188.67 C194.53,188.03 198.57,184.28 199.71,181.72 C200.73,179.33 200.99,174.24 200.22,172.35 C199.40,170.48 196.19,168.26 193.30,167.51 C189.84,166.66 183.85,166.07 179.99,166.26 C176.61,166.45 172.69,168.18 171.49,170.06 C170.32,172.00 169.83,177.31 170.71,180.05 C171.73,183.03 176.37,188.08 179.71,189.69 C181.41,190.48 184.98,191.37 186.78,191.46 C190.23,191.57 195.95,189.24 197.99,187.17 C199.77,185.29 201.36,180.93 201.15,178.79 C200.90,176.68 198.40,173.09 196.30,171.90 C194.23,170.76 188.22,169.18 185.19,169.17 C182.36,169.19 179.07,170.12 178.32,171.28 C177.68,172.37 177.98,175.80 178.94,177.43 C180.08,179.28 184.00,181.88 186.42,182.36 C188.78,182.79 192.91,181.68 194.28,180.43 C195.48,179.28 196.32,176.22 195.87,175.17 C194.74,172.73 190.11,170.64 187.41,170.10 C184.39,169.55 179.12,169.94 178.54,171.01 C177.96,172.28 178.73,175.57 180.06,177.20 C181.52,178.94 185.69,180.98 187.80,180.98 C189.87,180.94 192.96,178.83 193.84,177.01 C194.10,176.43 194.73,174.23 194.72,173.45 C194.63,171.52 193.68,168.80 192.45,167.56 C189.51,164.63 181.33,161.90 178.84,161.88 C177.27,161.88 169.98,165.26 167.88,166.83 C166.37,167.98 164.30,170.35 163.69,171.67 C163.07,173.09 163.10,175.71 163.64,177.43 C164.15,178.90 167.55,183.41 170.19,186.06 C172.98,188.84 178.48,193.16 180.52,194.27 C182.93,195.55 187.43,195.70 189.70,194.60 C191.83,193.52 195.99,189.55 197.50,187.14 C199.05,184.60 200.38,179.45 200.09,176.88 C199.75,174.36 197.43,170.75 195.87,169.52 C194.17,168.25 187.50,165.49 184.78,165.26 C184.38,165.22 183.87,165.25 183.27,165.34" fill="none" stroke="rgb(53, 53, 48)" stroke-width="20.00" stroke-opacity="1.00" stroke-linejoin="round"/>
<path d="M193.58,261.04 C192.78,261.20 198.75,264.16 203.62,265.42 C205.98,266.02 225.06,268.62 230.14,268.84 C236.19,269.08 269.97,267.98 289.34,267.82 C298.80,267.70 312.71,266.40 318.10,265.47 C323.95,264.44 334.36,261.84 344.51,258.66 C369.88,250.11 379.00,247.54 381.89,245.88 C391.39,240.48 394.04,238.50 394.62,237.96" fill="none" stroke="rgb(145, 103, 86)" stroke-width="20.00" stroke-opacity="1.00" stroke-linejoin="round"/>
<path d="M306.24,153.81 C306.24,153.81 309.09,152.47 309.09,152.47 C297.96,163.66 284.62,178.30 283.45,180.59 C282.91,181.70 281.79,186.70 281.86,189.30 C281.97,192.21 283.80,198.74 284.87,201.04 C288.16,208.02 292.64,213.96 294.40,216.02 C301.31,213.06 310.86,208.34 315.17,204.92 C317.95,202.68 321.49,198.97 323.58,196.10 C325.44,193.51 328.89,186.75 329.81,183.68 C330.52,181.17 330.98,176.68 330.69,174.54 C330.38,172.43 328.86,167.72 327.78,165.45 C326.90,163.64 324.01,159.32 321.70,157.94 C320.47,157.24 317.15,156.63 315.57,156.76 C313.96,156.95 310.70,158.23 309.37,159.24 C307.24,160.93 302.81,167.70 301.83,169.55 C299.03,174.85 295.28,187.65 294.73,193.52 C294.55,195.59 294.42,200.25 294.58,201.41 C294.79,202.67 296.01,204.18 297.20,204.32 C298.78,204.46 302.16,203.87 303.84,203.19 C307.33,201.69 313.14,196.96 315.32,193.58 C317.32,190.38 319.36,183.56 319.51,180.68 C319.54,179.40 318.98,176.87 318.37,175.88 C317.79,175.01 315.65,174.13 314.39,174.09 C311.67,174.10 306.62,176.95 304.87,179.07 C303.17,181.22 301.37,185.71 301.49,188.05 C301.59,189.37 302.15,190.94 303.00,192.34 C303.75,193.50 306.01,194.74 308.07,195.17 C309.79,195.49 314.70,193.80 316.75,191.98 C318.90,189.99 321.59,184.50 321.76,181.50 C321.81,180.22 321.20,177.41 320.69,176.44 C319.60,174.49 315.36,172.53 313.70,172.84 C310.69,173.46 306.52,176.84 304.86,178.40 C304.55,178.69 303.89,179.29 302.86,180.20" fill="none" stroke="rgb(167, 115, 105)" stroke-width="20.00" stroke-opacity="1.00" stroke-linejoin="round"/>
<path d="M243.22,240.36 C243.22,240.36 240.47,239.98 240.47,239.98 C243.12,236.90 247.85,232.58 250.21,231.10 C251.79,230.13 254.17,229.24 255.66,229.06 C256.97,228.94 259.52,229.28 260.53,229.77 C265.81,232.46 269.13,237.87 269.47,239.00 C267.93,240.78 261.51,244.03 259.01,244.78 C250.51,247.27 246.50,245.45 246.33,244.93 C245.93,242.22 255.23,240.58 258.59,240.36 C258.24,240.47 257.90,240.57 257.57,240.64 C257.25,240.71 256.49,240.86 255.31,241.08" fill="none" stroke="rgb(167, 115, 105)" stroke-width="20.00" stroke-opacity="1.00" stroke-linejoin="round"/>
<path d="M253.05,136.64 C251.11,140.47 249.00,145.20 248.53,147.07 C247.93,149.59 248.55,151.91 250.19,153.22 C251.71,154.36 257.04,154.67 260.10,153.48 C261.58,152.86 264.66,150.82 265.81,149.62 C268.44,146.77 271.27,140.17 270.81,138.58 C270.19,136.72 268.76,135.13 267.44,134.94 C264.82,134.65 259.42,135.90 257.47,137.22 C256.52,137.89 255.47,138.99 254.50,140.31 C253.80,141.36 253.18,144.27 253.70,145.57 C254.34,147.10 256.72,148.42 258.21,148.36 C259.73,148.20 262.23,146.47 262.91,145.00 C263.12,144.55 263.07,143.90 262.77,143.04 C262.77,143.04 257.44,148.05 257.44,148.05" fill="none" stroke="rgb(167, 115, 105)" stroke-width="17.00" stroke-opacity="1.00" stroke-linejoin="round"/>
<path d="M155.84,120.85 C155.84,120.85 154.05,122.15 154.05,122.15 C157.10,117.41 166.90,107.27 172.67,103.41 C176.87,100.66 180.12,100.46 180.94,101.16 C181.21,103.03 181.21,104.86 180.82,106.95 C180.37,109.20 179.42,111.29 178.37,112.18 C177.30,113.02 162.23,118.97 157.61,121.13 C157.61,121.13 168.82,112.61 168.82,112.61" fill="none" stroke="rgb(167, 115, 105)" stroke-width="15.00" stroke-opacity="1.00" stroke-linejoin="round"/>
<path d="M129.45,210.84 C127.62,210.60 126.57,210.52 126.29,210.60 C126.06,210.68 127.29,216.60 127.81,218.92 C128.18,220.34 129.81,222.23 131.38,222.70 C132.73,223.08 137.09,222.36 137.97,221.69 C138.85,220.96 139.11,218.56 138.61,217.25 C138.06,215.99 136.35,214.21 135.15,213.56 C132.95,212.48 130.67,212.56 128.65,213.00" fill="none" stroke="rgb(167, 115, 105)" stroke-width="15.00" stroke-opacity="1.00" stroke-linejoin="round"/>
<path d="M20.82,217.21 C19.81,217.63 19.19,217.87 18.97,217.92 C18.28,218.04 15.95,213.86 15.76,212.07 C15.61,210.11 18.52,205.26 20.44,203.40 C22.78,201.21 28.51,199.12 32.56,199.05 C34.05,199.05 39.88,199.99 42.56,200.76 C48.67,202.54 60.47,209.31 64.69,212.80 C69.26,216.62 76.63,225.68 80.76,232.38 C82.10,234.58 83.64,238.09 84.46,239.98" fill="none" stroke="rgb(47, 27, 22)" stroke-width="15.00" stroke-opacity="1.00" stroke-linejoin="round"/>
<path d="M92.04,211.60 C94.42,215.03 103.55,221.53 113.00,227.76 C119.83,232.18 133.26,240.82 139.86,245.03 C146.13,248.84 158.95,256.05 164.41,258.50 C172.44,262.01 183.44,265.97 191.02,267.71 C195.89,268.80 210.31,269.84 211.62,269.97 C214.06,270.22 216.58,270.57 217.84,270.80" fill="none" stroke="rgb(145, 103, 86)" stroke-width="15.00" stroke-opacity="1.00" stroke-linejoin="round"/>
<path d="M217.03,255.65 C217.05,255.95 217.15,256.14 217.36,256.24 C217.81,256.45 238.68,260.73 244.43,261.20 C248.97,261.53 261.90,261.95 273.17,261.61 C283.99,261.15 328.75,256.16 334.66,255.02 C339.18,254.13 353.68,250.00 360.17,247.29 C366.90,244.35 378.80,239.21 384.35,236.96 C380.15,236.49 377.47,236.31 375.61,237.55 C375.33,237.73 374.96,238.08 374.48,238.59" fill="none" stroke="rgb(113, 58, 50)" stroke-width="20.00" stroke-opacity="1.00" stroke-linejoin="round"/>
<path d="M345.81,118.60 C347.82,120.13 354.40,131.83 358.12,139.24 C360.90,144.99 366.01,157.48 368.24,163.50 C370.61,170.16 382.55,213.10 382.60,214.78 C382.78,223.30 381.02,230.84 380.71,232.17 C380.38,228.73 379.57,219.94 379.58,218.86 C379.59,217.67 379.75,215.13 379.81,214.22" fill="none" stroke="rgb(113, 58, 50)" stroke-width="20.00" stroke-opacity="1.00" stroke-linejoin="round"/>
</g>
</svg>
